<?xml version="1.0"?>
<svg width="48" height="48" viewBox="0 0 48 48" xmlns="http://www.w3.org/2000/svg" xmlns:svg="http://www.w3.org/2000/svg">
 <!-- Created with SVG-edit - https://github.com/SVG-Edit/svgedit-->
 <g>
  <path d="m23.55,1.89l2.7,0l0.05,0.05l0.54,0l0.04,0.04l0.82,0.05l0.04,0.04l0.59,0.05l1.26,0.22l1.55,0.43l-0.11,0.02l-0.63,-0.18l-1.35,-0.18l-0.05,-0.04l-0.27,0l-0.04,-0.05l-0.36,0l-0.05,-0.04l-1.31,-0.05l-0.04,-0.04l-2.66,0l-0.04,0.04l-0.82,0l-0.04,0.05l-1.35,0.09l-0.05,0.04l-0.31,0l-0.05,0.05l-0.27,0l-1.4,0.27l-0.22,0l-1.71,0.4l-1.96,0.64c-0.04,0.09 0,0.12 0.11,0.09l0.31,-0.14l1.45,-0.36l2.52,-0.45l1.22,-0.09l0.04,-0.05l0.45,0l0.05,-0.04l0.76,0l0.05,-0.05l1.94,0l0,0.05c-0.17,0.07 -0.39,0.09 -0.68,0.04l-0.04,-0.04l-1.22,0l-0.05,0.04l-0.65,0.03l1.33,0.02l0.04,-0.05l0.5,0l0,0.05l-0.5,0l-0.04,0.04l-0.36,0l-0.05,0.05l-0.36,0l-0.04,0.04l-0.81,0.09l-2.19,0.5c-0.04,0.09 0,0.12 0.11,0.09l0.32,-0.09l0.36,0l0.04,-0.04l0.37,0l0.45,-0.09l0.45,0l0.04,-0.05l0.54,0l0.05,-0.04l0.9,0l0.04,-0.05l2.48,0l0.05,0.05l0.76,0l0.05,0.04l0.54,0l0.05,0.05l1.26,0.09l0.04,0.04l0.27,0l0.05,0.05l1.35,0.18l2.66,0.63l2.03,0.67c1.26,0.48 2.43,1.05 3.51,1.72c1.22,0.76 2.31,1.66 3.27,2.68l-0.34,-0.3l-0.83,-0.65l0.04,-0.04l-0.2,-0.21l-0.11,0.03l0.22,0.18l-0.15,-0.12l-0.61,-0.43l0.09,0l-0.03,-0.11l-0.09,0l-0.06,0.02l0.02,0.07l-1.04,-0.67l-1.26,-0.68l-2.88,-1.22l-1.22,-0.4l-0.32,-0.05l-1.48,-0.45l-1.85,-0.36l-2.03,-0.22l-0.04,0.09l1.66,0.22l1.9,0.41l2.43,0.72l1.4,0.54l2.48,1.4l1.26,0.85c1.29,0.93 2.47,1.98 3.54,3.14l1.44,1.75l-0.05,0.09c0.08,-0.05 0.15,-0.01 0.23,0.14c0.71,0.97 1.34,2.02 1.89,3.15l0.77,1.81l0.54,1.62l0.45,1.94l0.13,1.08l0.05,0.04l0,0.32l0.04,0.04l0.05,0.86l0.04,0.05l0,0.67l0.05,0.05l0,1.8l-0.05,0.04l-0.04,1.22l-0.05,0.05l0,0.36l-0.04,0.04l-0.14,1.22l-0.27,1.31l-0.4,1.44c-0.57,1.73 -1.3,3.3 -2.19,4.71l-0.07,0.02l0,0.09l-0.56,0.88l-0.07,0.02c0.08,0.05 0.06,0.09 -0.04,0.14c-0.86,1.3 -1.84,2.48 -2.95,3.54c-1.23,1.18 -2.61,2.2 -4.15,3.06c-0.43,0.24 -0.91,0.44 -1.44,0.59l-0.23,0.04l-0.76,0c-0.42,-0.11 -0.74,-0.31 -0.97,-0.61l-0.23,-0.54l0,-0.4l0.16,-0.39l0.07,0.03l-0.05,-0.14l0.27,-0.38l0.43,-0.32l1.26,-0.58l0.99,-0.64c0.92,-0.63 1.75,-1.34 2.51,-2.14l0.09,-0.13c1.44,-1.54 2.59,-3.39 3.42,-5.54l0.5,-1.54l0.4,-1.89l0.09,-1.08l0.05,-0.05l0,-0.63l0.04,-0.04l0,-1.85l-0.04,-0.05l-0.05,-1.17l-0.13,-0.58l0,-0.32l-0.32,-1.26l0,-0.18c-0.26,-1.02 -0.59,-1.96 -0.99,-2.84c-1.02,-2.27 -2.4,-4.18 -4.12,-5.75c-0.91,-0.82 -1.9,-1.56 -2.98,-2.21c-0.94,-0.55 -1.96,-1.04 -3.06,-1.44l-1.58,-0.49l-1.67,-0.36l-0.27,0l-0.99,-0.18l-0.54,0l-0.05,-0.05l-1.8,-0.04l-0.04,0.04l-0.86,0l-0.04,0.05l-0.86,0.04l-2.07,0.36l-1.49,0.41l-1.8,0.67c-2.15,0.96 -3.96,2.24 -5.44,3.86c-1.44,1.53 -2.56,3.38 -3.38,5.54l-0.4,1.22l-0.41,1.71l-0.13,1.17l-0.05,0.05l0,0.45l-0.04,0.04l-0.05,1.53l0.05,0.05l0,0.72l0.04,0.05l0.05,0.81l0.22,1.21l0.68,2.08c0.62,1.45 1.48,2.66 2.59,3.63c0.53,0.47 1.15,0.86 1.85,1.17l0.72,0.22l0.9,0.05c0.45,-0.08 0.78,-0.27 1.02,-0.57l0.27,-0.49l0.09,-0.45l0,-2.62l-0.09,-0.31l-0.14,-0.2l-2.05,-1l-0.11,-0.11l-0.05,-0.36l1.8,-4.06l0.25,-0.33l0.27,-0.05l7.57,3.7l0.21,0.2l0.04,0.09l0,9.55l-0.04,0.05l0,0.41l-0.05,0.04l-0.04,0.59l-0.18,0.67l-0.32,0.81c-0.38,0.78 -0.89,1.43 -1.51,1.96c-0.77,0.67 -1.72,1.17 -2.84,1.49l-0.72,0.18l-0.54,0.05l-0.04,0.04l-0.41,0l-0.05,0.05l-1.57,0l-0.05,-0.05l-0.99,-0.09l-1.53,-0.36c-1,-0.31 -1.92,-0.7 -2.75,-1.17c-1.71,-0.97 -3.21,-2.14 -4.49,-3.54c-0.86,-0.91 -1.64,-1.9 -2.34,-2.97l0.02,-0.07l-0.11,-0.07l0.02,-0.07l-0.11,-0.06c-0.67,-1 -1.26,-2.08 -1.76,-3.25l-0.54,-1.4l-0.45,-1.48l-0.31,-1.36l0,-0.22l-0.18,-0.86l-0.05,-0.67l-0.04,-0.05l-0.05,-0.9l-0.04,-0.04l0,-0.73l-0.05,-0.04l0,-1.89l0.05,-0.05l0,-0.77l0.04,-0.04l0.05,-0.86l0.04,-0.04l0,-0.32l0.05,-0.04l0.13,-1.08l0.23,-1.13l0.45,-1.67c0.72,-2.25 1.67,-4.27 2.86,-6.06l0.07,-0.02l0,-0.09c1.02,-1.61 2.23,-3.03 3.62,-4.26c0.97,-0.89 2.02,-1.68 3.16,-2.39l0.07,0.02l0.06,-0.11c0.97,-0.63 2.01,-1.18 3.11,-1.67l1.45,-0.58l1.75,-0.59l1.72,-0.45l1.57,-0.32l0.55,-0.04l0.31,-0.09l0.32,0l0.04,-0.05l0.32,0l0.04,-0.04l1.44,-0.09l0.05,-0.05zm0.16,0.05l0,0.04l0.49,0l-0.49,-0.04zm1.48,0l0,0.04l0.18,0l-0.18,-0.04zm-2.11,0.04l0,0.05l0.27,0l-0.27,-0.05zm3.38,0l0,0.05l0.36,0l-0.36,-0.05zm0.49,0.05l0,0.04l0.27,0l-0.27,-0.04zm-4.78,0.04l0,0.05l0.09,0l-0.09,-0.05zm5.19,0l0,0.05c0.12,-0.03 0.21,-0.02 0.27,0.04l0.36,0l-0.63,-0.09zm-5.55,0.05l0,0.04l0.18,0l-0.18,-0.04zm2.66,0l0,0.04l2.17,0l-2.17,-0.04zm-3.38,0.09l0,0.04l0.14,0l-0.14,-0.04zm7.08,0l0,0.04l0.18,0.05l0.4,0c-0.12,-0.12 -0.31,-0.15 -0.58,-0.09zm0.86,0.09l0.09,0.09l0.27,0l-0.36,-0.09zm-8.7,0.04l0,0.05l0.09,0l-0.09,-0.05zm1.44,0l0,0.05l0.09,0l-0.09,-0.05zm-1.67,0.05l0,0.04l0.09,0l-0.09,-0.04zm9.33,0l0,0.04l0.14,0l-0.14,-0.04zm-9.6,0.04l0,0.05l0.14,0l-0.14,-0.05zm9.87,0l0,0.05l0.09,0l-0.09,-0.05zm-10.32,0.09l0,0.05l0.09,0l-0.09,-0.05zm-0.13,0.05l0,0.04l0.09,0l-0.09,-0.04zm-0.46,0.09l0,0.04l0.09,0l-0.09,-0.04zm-0.18,0.04l0,0.05l0.09,0l-0.09,-0.05zm-0.18,0.05l0,0.04l0.09,0l-0.09,-0.04zm3.29,0.09l0,0.04l0.14,0l-0.14,-0.04zm-3.83,0.04l0,0.05l0.09,0l-0.09,-0.05zm3.43,0l0,0.05l0.36,0l-0.36,-0.05zm-0.86,0.09l0,0.05l0.14,0l-0.14,-0.05zm-0.85,0.14l0,0.04l0.18,0l-0.18,-0.04zm-0.55,0.09l0,0.05l0.19,0l-0.19,-0.05zm-0.49,0.09l0,0.05l0.09,0l-0.09,-0.05zm-2.16,0.05l0,0.04l0.09,0l-0.09,-0.04zm1.98,0l0,0.04l0.13,0l-0.13,-0.04zm5.23,0l0,0.04l1.98,0l-1.98,-0.04zm2.93,0.04l0,0.05l0.18,0l-0.18,-0.05zm-8.57,0.05l0,0.04l0.09,0l-0.09,-0.04zm4.06,0l0,0.04l0.45,0l-0.45,-0.04zm4.91,0l0,0.04l0.45,0l-0.45,-0.04zm-9.37,0.09l0,0.04l0.09,0l-0.09,-0.04zm3.51,0l0,0.04l0.23,0l-0.23,-0.04zm7.08,0l0,0.04l0.09,0l-0.09,-0.04zm-7.39,0.04l0,0.05l0.27,0l-0.27,-0.05zm7.52,0l0,0.05l0.23,0l-0.23,-0.05zm-7.97,0.05l0,0.04l0.09,0l-0.09,-0.04zm8.47,0l0,0.04l0.23,0l-0.23,-0.04zm-11.76,0.04l0,0.05l0.09,0l-0.09,-0.05zm12.08,0l0,0.05l0.18,0l-0.18,-0.05zm0.63,0.09l0,0.05l0.13,0l-0.13,-0.05zm0.72,0.14l0,0.04l0.09,0l-0.09,-0.04zm0.27,0.04l0,0.05l0.09,0l-0.09,-0.05zm0.18,0.05l0,0.04l0.13,0l-0.13,-0.04zm0.58,0.13l0,0.05l0.14,0l-0.14,-0.05zm-2.56,0.09l0,0.05l0.13,0l-0.13,-0.05zm2.97,0l0,0.05l0.14,0l-0.14,-0.05zm-2.39,0.09l0,0.05l0.09,0l-0.09,-0.05zm0.14,0.05l0,0.04l0.09,0l-0.09,-0.04zm2.79,0l0,0.04l0.09,0l-0.09,-0.04zm-2.3,0.09l0,0.04l0.14,0l-0.14,-0.04zm2.66,0l0,0.04l0.09,0l-0.09,-0.04zm-1.67,0.22l0,0.05l0.09,0l-0.09,-0.05zm0.36,0.09l0,0.05l0.09,0l-0.09,-0.05zm0.95,0.27l0,0.05l0.09,0l-0.09,-0.05zm7.66,2.93l-0.13,0.09l0.13,0.05c0.09,-0.03 0.09,-0.08 0,-0.14zm0.09,0.14l0.05,0.09c0.03,-0.09 0.01,-0.12 -0.05,-0.09zm-16.54,1.58l0,0.04l0.36,0l-0.36,-0.04zm3.34,0l0,0.04l0.36,0l-0.36,-0.04zm-4.06,0.09l0,0.04l0.09,0l-0.09,-0.04zm5,0l0,0.04l0.14,0l-0.14,-0.04zm-5.27,0.04l0,0.05l0.14,0l-0.14,-0.05zm5.5,0l0,0.05l0.09,0l-0.09,-0.05zm-6.09,0.09l0,0.05l0.14,0l-0.14,-0.05zm6.67,0l0,0.05l0.14,0l-0.14,-0.05zm-7.16,0.09l0,0.05l0.09,0l-0.09,-0.05zm7.71,0l0,0.05l0.09,0l-0.09,-0.05zm-7.89,0.05l0,0.04l0.09,0l-0.09,-0.04zm8.02,0l0,0.04l0.09,0l-0.09,-0.04zm-8.47,0.09l0,0.04l0.13,0l-0.13,-0.04zm8.88,0l0,0.04l0.09,0l-0.09,-0.04zm-9.24,0.09l0,0.04l0.09,0l-0.09,-0.04zm9.64,0l0,0.04l0.09,0l-0.09,-0.04zm-29.47,9.91l-0.05,0.14l0.05,0l0,-0.14zm46.46,0.05l-0.04,0.13l0.04,0l0,-0.13zm-46.55,0.36l-0.05,0.13l0.05,0l0,-0.13zm46.64,0.04l-0.04,0.14l0.04,0l0,-0.14zm-46.78,0.54l-0.04,0.14l0.04,0l0,-0.14zm47.01,0.45l-0.05,0.14l0.05,0l0,-0.14zm-47.1,0.05l-0.04,0.18l0.04,0l0,-0.18zm47.19,0.49l-0.05,0.14l0.05,0l0,-0.14zm-39.21,0.27l-0.05,0.14l0.05,0l0,-0.14zm-8.11,0.1l-0.05,0.18l0.05,0l0,-0.18zm8.02,0.27l-0.05,0.13l0.05,0l0,-0.13zm39.43,0.22l-0.04,0.23l0.04,0l0,-0.23zm-47.54,0.18l-0.05,0.27l0.05,0l0,-0.27zm7.97,0.18l-0.04,0.18l0.04,0l0,-0.18zm39.66,0.45l-0.04,0.32l0.04,0l0,-0.32zm-39.75,0.14l-0.04,0.18l0.04,0l0,-0.18zm-7.97,0.27l-0.05,0.54l0.05,0l0,-0.54zm7.84,0.63l-0.05,0.36l0.05,0l0,-0.36zm-7.89,0.18l-0.04,1.26l0.04,0l0,-1.26zm0.05,1.89l-0.05,0.36l0.05,0l0,-0.36zm47.72,0.72l-0.04,0.23l0.04,0l0,-0.23zm-39.88,0.14l-0.05,0.31l0.05,0l0,-0.31zm-7.75,0.31l-0.05,0.27l0.05,0l0,-0.27zm7.79,0.09l-0.04,0.14l0.04,0l0,-0.14zm39.75,0.32l-0.04,0.18l0.04,0l0,-0.18zm-39.66,0.31l-0.04,0.19l0.04,0l0,-0.19zm-7.79,0.19l-0.05,0.13l0.05,0l0,-0.13zm7.88,0.36l-0.04,0.13l0.04,0l0,-0.13zm39.44,0.04l-0.05,0.14l0.05,0l0,-0.14zm-47.19,0.36l-0.04,0.18l0.04,0l0,-0.18zm7.89,0.14l-0.05,0.13l0.05,0l0,-0.13zm39.21,0.09l-0.05,0.13l0.05,0l0,-0.13zm-47.01,0.27l-0.04,0.18l0.04,0l0,-0.18zm0.36,1.48l-0.04,0.14l0.04,0l0,-0.14zm13.7,5.14l0,0.05l0.32,0l-0.32,-0.05zm20.01,8.52l0,0.05l0.27,0l-0.27,-0.05zm0.45,0l0,0.05l0.19,0l-0.19,-0.05zm-21.63,0.23l0,0.04l0.09,0l-0.09,-0.04zm0.9,0.22l0,0.05l0.14,0l-0.14,-0.05zm4.37,0l0,0.05l0.09,0l-0.09,-0.05zm-3.78,0.09l0,0.05l0.09,0l-0.09,-0.05zm3.29,0l0,0.05l0.13,0l-0.13,-0.05zm-2.35,0.14l0,0.04l1.54,0l-1.54,-0.04z" fill="#000000"/>
  <path d="m31.21,2.79l0.11,0.03l-0.11,0.02l0,-0.05z" fill="#000000"/>
  <path d="m29.5,18.79l0.31,0l0.54,0.14l1.36,0.41l5,1.26l0.16,0.11l0.04,0.27l-3.67,3.81l-0.36,0.09l-2.71,-0.95l-0.36,-0.18l-0.4,-0.09l-1.49,-0.58l-0.54,-0.14l-1.55,-0.61l-0.05,-0.18l0.2,-0.29l3.2,-2.89l0.32,-0.18zm4.66,1.22l0,0.05l0.09,0l-0.09,-0.05zm0.86,0.23l0,0.04l0.09,0l-0.09,-0.04zm1.22,0.31l0,0.05l0.09,0l-0.09,-0.05zm0.63,0.27l-0.05,0.14l0.05,0l0,-0.14z" fill="#000000"/>
  <path d="m19.22,18.88c0.29,-0.05 0.5,-0.02 0.63,0.09l3.36,3.05l0.05,0.22l-0.12,0.16l-6.26,2.3l-0.54,0.18l-0.32,0l-0.88,-0.79l-2.97,-3.02l0,-0.22l0.29,-0.21l0.54,-0.09l0.18,-0.09l1.9,-0.45l0.18,-0.09l3.78,-0.95l0.18,-0.09zm-2.36,0.68l0,0.05l0.09,0l-0.09,-0.05zm-1.72,0.45l0,0.05l0.09,0l-0.09,-0.05zm-2.07,0.54l0,0.05l0.09,0l-0.09,-0.05zm-0.5,0.14l0,0.04l0.09,0l-0.09,-0.04zm-0.31,0.13l-0.05,0.27l0.05,0l0,-0.27z" fill="#000000"/>
  <path d="m24.45,23.03l0.23,0l1.19,0.47l-0.09,0.05l0.11,0.02l0.09,-0.04l5.34,2.09c0.03,0.14 0.01,0.22 -0.06,0.25l-5.73,2.7l-0.81,0.37l-0.31,0l-5.26,-2.51l0.03,-0.06l-0.09,0.04l-1.29,-0.58c-0.03,-0.14 -0.01,-0.23 0.07,-0.28l5.09,-1.93l0,0.09l0.12,-0.07l-0.03,-0.07l1.4,-0.54zm0.02,0.05l-0.04,0.09l0.22,-0.05l-0.18,-0.04zm6.81,2.52l-0.05,0.14l0.05,0l0,-0.14zm-13.43,0.05l0,0.13l0.09,0.05c0.03,-0.15 0,-0.21 -0.09,-0.18z" fill="#000000"/>
  <path d="m32.83,26.28c0.29,-0.05 0.46,0.02 0.52,0.2l1.94,4.15l0,0.27l-0.2,0.24l-1.35,0.63l-0.25,0.21l-0.14,0.22l0,5.37c-0.03,0.22 -0.13,0.38 -0.29,0.47l-1.08,0.45l-3.29,1.58l-3.11,1.58l-0.32,0.04l-0.2,-0.09l-0.09,-0.25l0,-10.9c0.03,-0.23 0.13,-0.39 0.29,-0.48l4.73,-2.25l2.84,-1.44zm2.28,4.68l0,0.09l0.09,-0.04l-0.09,-0.05zm-1.98,6.85l0,0.09l0.09,-0.04l-0.09,-0.05zm-0.05,0.09l-0.09,0.09l0.09,0l0,-0.09z" fill="#000000"/>
 </g>
</svg>
